<?xml version="1.0" encoding="UTF-8"?>
<svg version="1.1" xmlns="http://www.w3.org/2000/svg" width="197" height="129">
<path d="M0 0 C13.71308224 4.3854741 27.50107446 7.97589571 41.625 10.8125 C42.49882324 10.99039062 43.37264648 11.16828125 44.27294922 11.3515625 C80.10483657 18.39358676 113.87627673 9.6923642 148.37414551 0.43595886 C150.45458943 -0.11837833 152.538822 -0.65518414 154.625 -1.1875 C155.38857819 -1.3910611 156.15215637 -1.59462219 156.93887329 -1.80435181 C158.09605362 -2.09322769 158.09605362 -2.09322769 159.27661133 -2.38793945 C159.96628494 -2.56525101 160.65595856 -2.74256256 161.36653137 -2.92524719 C164.2653129 -3.26185297 166.77862039 -2.76129073 169.625 -2.1875 C169.82801818 9.2289285 170.01482263 20.64557244 170.1875 32.0625 C170.20023327 32.90375175 170.21296654 33.74500351 170.22608566 34.61174774 C170.63103806 61.70340034 170.64280219 88.7311147 169.625 115.8125 C165.335 115.8125 161.045 115.8125 156.625 115.8125 C156.295 102.6125 155.965 89.4125 155.625 75.8125 C149.953125 77.38 144.28125 78.9475 138.4375 80.5625 C83.92511457 95.43450154 39.9399586 88.96600842 -13.375 71.8125 C-13.375 85.6725 -13.375 99.5325 -13.375 113.8125 C-17.665 113.8125 -21.955 113.8125 -26.375 113.8125 C-26.375 74.8725 -26.375 35.9325 -26.375 -4.1875 C-16.81849582 -6.09880084 -9.05346164 -2.95998182 0 0 Z M-13.375 9.8125 C-13.375 15.7525 -13.375 21.6925 -13.375 27.8125 C-9.64102964 29.08020599 -5.90625817 30.34501523 -2.16894531 31.6027832 C-0.27822416 32.24048063 1.61090207 32.88290055 3.5 33.52539062 C4.69882812 33.92822266 5.89765625 34.33105469 7.1328125 34.74609375 C8.23254395 35.11790771 9.33227539 35.48972168 10.46533203 35.87280273 C14.0547981 37.0111742 14.0547981 37.0111742 19.625 37.8125 C19.625 31.8725 19.625 25.9325 19.625 19.8125 C12.49319033 17.37523592 5.30285395 15.215494 -1.9375 13.125 C-3.04158203 12.80466797 -4.14566406 12.48433594 -5.28320312 12.15429688 C-7.98000776 11.37210679 -10.67743969 10.59207998 -13.375 9.8125 Z M148.78125 13.52734375 C147.75481384 13.79013878 147.75481384 13.79013878 146.7076416 14.0582428 C145.25820663 14.42999052 143.80895212 14.80244243 142.35986328 15.17553711 C140.13528967 15.74735508 137.90947792 16.31416769 135.68359375 16.88085938 C134.27856636 17.24187836 132.87361579 17.60319646 131.46875 17.96484375 C130.46406677 18.21958717 130.46406677 18.21958717 129.43908691 18.47947693 C126.26549808 19.1211546 126.26549808 19.1211546 123.625 20.8125 C123.53868126 22.15517413 123.51793527 23.50224322 123.52734375 24.84765625 C123.53056641 25.65654297 123.53378906 26.46542969 123.53710938 27.29882812 C123.54548828 28.14896484 123.55386719 28.99910156 123.5625 29.875 C123.56701172 30.72900391 123.57152344 31.58300781 123.57617188 32.46289062 C123.58799627 34.57945663 123.60593231 36.69598685 123.625 38.8125 C132.15089582 36.85060476 140.66490834 34.856096 149.125 32.625 C150.3521875 32.30144531 151.579375 31.97789063 152.84375 31.64453125 C155.50868786 31.08707232 155.50868786 31.08707232 156.625 29.8125 C156.71131874 28.46982587 156.73206473 27.12275678 156.72265625 25.77734375 C156.71943359 24.96845703 156.71621094 24.15957031 156.71289062 23.32617188 C156.70451172 22.47603516 156.69613281 21.62589844 156.6875 20.75 C156.68298828 19.89599609 156.67847656 19.04199219 156.67382812 18.16210938 C156.66200373 16.04554337 156.64406769 13.92901315 156.625 11.8125 C154.02672885 11.8125 151.3015537 12.88068887 148.78125 13.52734375 Z M32.625 22.8125 C32.625 29.0825 32.625 35.3525 32.625 41.8125 C48.51757099 45.06462666 48.51757099 45.06462666 64.625 46.8125 C64.65388514 43.66668577 64.67175923 40.52090531 64.6875 37.375 C64.70006836 36.02825195 64.70006836 36.02825195 64.71289062 34.65429688 C64.71611328 33.80029297 64.71933594 32.94628906 64.72265625 32.06640625 C64.72789307 31.27564697 64.73312988 30.4848877 64.73852539 29.67016602 C64.82995909 27.79657311 64.82995909 27.79657311 63.625 26.8125 C62.01667931 26.52650977 60.39813504 26.29751813 58.77734375 26.09375 C57.77896484 25.96613281 56.78058594 25.83851562 55.75195312 25.70703125 C54.69943359 25.57683594 53.64691406 25.44664063 52.5625 25.3125 C51.53705078 25.18230469 50.51160156 25.05210938 49.45507812 24.91796875 C46.51223689 24.5451712 43.56874265 24.17810504 40.625 23.8125 C37.985 23.4825 35.345 23.1525 32.625 22.8125 Z M102.4296875 24.43359375 C101.6353833 24.56403076 100.8410791 24.69446777 100.02270508 24.82885742 C99.1902124 24.96783447 98.35771973 25.10681152 97.5 25.25 C90.88275094 26.32868761 84.31114406 27.2644554 77.625 27.8125 C77.625 34.0825 77.625 40.3525 77.625 46.8125 C85.08203361 47.02361237 91.8747372 46.29243021 99.1875 44.875 C100.18330078 44.69259766 101.17910156 44.51019531 102.20507812 44.32226562 C106.76620651 43.82695361 106.76620651 43.82695361 110.625 41.8125 C110.71131874 40.46982587 110.73206473 39.12275678 110.72265625 37.77734375 C110.71943359 36.96845703 110.71621094 36.15957031 110.71289062 35.32617188 C110.70451172 34.47603516 110.69613281 33.62589844 110.6875 32.75 C110.68298828 31.89599609 110.67847656 31.04199219 110.67382812 30.16210938 C110.66200373 28.04554337 110.64406769 25.92901315 110.625 23.8125 C107.67459011 23.8125 105.28863399 23.95408075 102.4296875 24.43359375 Z M-13.375 41.8125 C-13.375 47.0925 -13.375 52.3725 -13.375 57.8125 C-9.1588092 59.2408526 -4.94188112 60.66640875 -0.72241211 62.08496094 C0.71270643 62.56836246 2.14728229 63.05337817 3.58129883 63.54003906 C5.64263614 64.23928121 7.70585542 64.93269477 9.76953125 65.625 C11.01065674 66.04394531 12.25178223 66.46289062 13.53051758 66.89453125 C16.56639187 67.95469868 16.56639187 67.95469868 19.625 67.8125 C19.625 62.2025 19.625 56.5925 19.625 50.8125 C15.4085753 49.52691134 11.19154432 48.24388022 6.97241211 46.96728516 C5.53738895 46.5322527 4.10281396 46.09573904 2.66870117 45.65771484 C0.60711882 45.0283221 -1.45601718 44.40427587 -3.51953125 43.78125 C-4.76065674 43.40419922 -6.00178223 43.02714844 -7.28051758 42.63867188 C-10.32426769 41.68352635 -10.32426769 41.68352635 -13.375 41.8125 Z M145.890625 45.5625 C145.25259949 45.74006836 144.61457397 45.91763672 143.95721436 46.10058594 C141.92842579 46.66640682 139.90172673 47.23934264 137.875 47.8125 C136.49622571 48.19838846 135.11732076 48.58381042 133.73828125 48.96875 C130.36537238 49.91040446 126.99538494 50.86166092 123.625 51.8125 C123.625 58.0825 123.625 64.3525 123.625 70.8125 C134.73625325 68.10976272 145.6715216 65.09854352 156.625 61.8125 C156.625 55.8725 156.625 49.9325 156.625 43.8125 C152.60559724 43.8125 149.74284034 44.4811764 145.890625 45.5625 Z M32.625 54.8125 C32.625 60.4225 32.625 66.0325 32.625 71.8125 C36.45636738 72.65588276 40.28967861 73.48745993 44.125 74.3125 C45.20265625 74.55097656 46.2803125 74.78945312 47.390625 75.03515625 C53.26776708 76.28942438 58.6157487 77.10421123 64.625 76.8125 C64.65184312 73.99993719 64.67176188 71.18762759 64.6875 68.375 C64.70006836 67.17133789 64.70006836 67.17133789 64.71289062 65.94335938 C64.7215143 63.89954779 64.6772815 61.85566098 64.625 59.8125 C63.03873332 58.22623332 61.22378124 58.3848813 59.03125 58.09375 C58.0825 57.96613281 57.13375 57.83851562 56.15625 57.70703125 C55.1559375 57.57683594 54.155625 57.44664063 53.125 57.3125 C52.155625 57.18230469 51.18625 57.05210938 50.1875 56.91796875 C44.34054073 56.13994594 38.48968618 55.44259025 32.625 54.8125 Z M99.890625 56.6875 C98.59511719 56.86796875 97.29960938 57.0484375 95.96484375 57.234375 C94.60155417 57.42702443 93.23827303 57.61973352 91.875 57.8125 C90.49612864 58.00545781 89.11722273 58.19816889 87.73828125 58.390625 C84.36684688 58.86215428 80.99587818 59.33701089 77.625 59.8125 C77.625 65.7525 77.625 71.6925 77.625 77.8125 C87.75963664 78.16603384 101.31754834 78.46622583 110.625 73.8125 C110.625 67.8725 110.625 61.9325 110.625 55.8125 C106.9176779 55.8125 103.55588173 56.173078 99.890625 56.6875 Z " fill="#000000" transform="translate(26.375,6.1875)"/>
</svg>
